<?xml version="1.0" standalone="no"?><!DOCTYPE svg PUBLIC "-//W3C//DTD SVG 1.1//EN" "http://www.w3.org/Graphics/SVG/1.1/DTD/svg11.dtd"><svg t="1572485088505" class="icon" viewBox="0 0 1024 1024" version="1.1" xmlns="http://www.w3.org/2000/svg" p-id="3475" width="16" height="16" xmlns:xlink="http://www.w3.org/1999/xlink"><defs><style type="text/css"></style></defs><path d="M883.37066667 75.09333333c-109.22666667-80.09955555-262.144-65.536-356.80711112 29.12711112L395.49155555 242.57422222C300.82844445 329.95555555 286.26488889 482.87288889 359.08266667 584.81777778c29.12711111 43.69066667 72.81777778 72.81777778 123.79022222 94.66311111V541.12711111l-7.28177778-7.28177778c-58.25422222-58.25422222-58.25422222-145.63555555 0-203.88977778l145.63555556-145.63555555c29.12711111-29.12711111 65.536-43.69066667 101.94488888-43.69066667 36.40888889 0 65.536 14.56355555 94.66311112 36.40888889 58.25422222 58.25422222 58.25422222 152.91733333 0 211.17155556l-58.25422222 58.25422222v167.48088889l145.63555555-145.63555556c109.22666667-109.22666667 101.94488889-291.27111111-21.84533333-393.216z" fill="#1296db" p-id="3476"></path><path d="M504.71822222 380.928v138.35377778l7.28177778 7.28177777c58.25422222 58.25422222 58.25422222 145.63555555 0 203.88977778l-109.22666667 109.22666667c-29.12711111 29.12711111-65.536 36.40888889-101.94488888 36.40888889s-72.81777778-14.56355555-101.9448889-43.69066667c-58.25422222-58.25422222-58.25422222-145.63555555 0-203.88977777l65.536-65.536V402.77333333l-145.63555555 145.63555556c-101.94488889 101.94488889-101.94488889 269.42577778 0 371.37066666C220.72888889 1021.72444445 388.20977778 1021.72444445 490.15466667 919.77955555l109.22666666-109.22666666c101.94488889-101.94488889 101.94488889-269.42577778 0-371.37066667-29.12711111-21.84533333-65.536-43.69066667-94.66311111-58.25422222z" fill="#1296db" p-id="3477"></path></svg>